<svg width="58" height="58" viewBox="0 0 58 58" fill="none" xmlns="http://www.w3.org/2000/svg">
<path d="M28.9922 14.1202C20.758 14.1202 14.1127 20.7657 14.1127 29C14.1127 37.2343 20.758 43.8798 28.9922 43.8798C37.2264 43.8798 43.8717 37.2343 43.8717 29C43.8717 20.7657 37.2264 14.1202 28.9922 14.1202ZM28.9922 38.6708C23.6672 38.6708 19.3216 34.3251 19.3216 29C19.3216 23.6749 23.6672 19.3292 28.9922 19.3292C34.3172 19.3292 38.6628 23.6749 38.6628 29C38.6628 34.3251 34.3172 38.6708 28.9922 38.6708ZM44.4811 10.0429C42.5586 10.0429 41.0061 11.5955 41.0061 13.518C41.0061 15.4406 42.5586 16.9931 44.4811 16.9931C46.4036 16.9931 47.9562 15.4478 47.9562 13.518C47.9567 13.0615 47.8672 12.6094 47.6928 12.1875C47.5184 11.7656 47.2624 11.3823 46.9396 11.0595C46.6168 10.7367 46.2335 10.4807 45.8116 10.3063C45.3898 10.1319 44.9376 10.0424 44.4811 10.0429ZM57.9968 29C57.9968 24.9953 58.033 21.0269 57.8081 17.0294C57.5832 12.3863 56.524 8.26549 53.1288 4.8702C49.7263 1.46765 45.6129 0.415687 40.9698 0.190785C36.9652 -0.0341167 32.9968 0.00215793 28.9995 0.00215793C24.9948 0.00215793 21.0265 -0.0341167 17.0291 0.190785C12.386 0.415687 8.26534 1.4749 4.87011 4.8702C1.46762 8.27275 0.415679 12.3863 0.190782 17.0294C-0.0341161 21.0341 0.00215789 25.0025 0.00215789 29C0.00215789 32.9974 -0.0341161 36.9731 0.190782 40.9706C0.415679 45.6137 1.47488 49.7345 4.87011 53.1298C8.27259 56.5323 12.386 57.5843 17.0291 57.8092C21.0337 58.0341 25.0021 57.9978 28.9995 57.9978C33.0041 57.9978 36.9725 58.0341 40.9698 57.8092C45.6129 57.5843 49.7336 56.5251 53.1288 53.1298C56.5313 49.7272 57.5832 45.6137 57.8081 40.9706C58.0403 36.9731 57.9968 33.0047 57.9968 29ZM51.6126 46.1071C51.083 47.4274 50.4445 48.4141 49.4216 49.4298C48.3987 50.4527 47.4193 51.0912 46.0989 51.6208C42.2829 53.1371 33.2217 52.7961 28.9922 52.7961C24.7627 52.7961 15.6942 53.1371 11.8782 51.628C10.5578 51.0984 9.5712 50.46 8.55553 49.4371C7.53261 48.4141 6.89419 47.4347 6.36459 46.1143C4.8556 42.291 5.19657 33.2296 5.19657 29C5.19657 24.7704 4.8556 15.7018 6.36459 11.8857C6.89419 10.5653 7.53261 9.57863 8.55553 8.56294C9.57845 7.54726 10.5578 6.90157 11.8782 6.37196C15.6942 4.86294 24.7627 5.20392 28.9922 5.20392C33.2217 5.20392 42.2902 4.86294 46.1062 6.37196C47.4266 6.90157 48.4132 7.54 49.4289 8.56294C50.4518 9.58588 51.0902 10.5653 51.6198 11.8857C53.1288 15.7018 52.7878 24.7704 52.7878 29C52.7878 33.2296 53.1288 42.291 51.6126 46.1071Z" fill="#879AB4"/>
</svg>
