<svg width="58" height="58" viewBox="0 0 58 58" fill="none" xmlns="http://www.w3.org/2000/svg">
<path fill-rule="evenodd" clip-rule="evenodd" d="M17 5H41C47.6274 5 53 10.3726 53 17V41C53 47.6274 47.6274 53 41 53H17C10.3726 53 5 47.6274 5 41V17C5 10.3726 10.3726 5 17 5ZM0 17C0 7.61116 7.61116 0 17 0H41C50.3888 0 58 7.61116 58 17V41C58 50.3888 50.3888 58 41 58H17C7.61116 58 0 50.3888 0 41V17ZM21.5 17.5C21.5 19.093 20.435 20.464 18.4985 20.464C16.676 20.464 15.5 19.171 15.5 17.578C15.5 15.943 16.64 14.5 18.5 14.5C20.36 14.5 21.464 15.865 21.5 17.5ZM15.5 41.5V22H21.5V41.5H15.5ZM24.5002 28.666C24.5002 26.3485 24.4237 24.412 24.3472 22.7395H29.7382L30.0052 25.324H30.1192C30.8782 24.1075 32.7382 22.324 35.8522 22.324C39.6502 22.324 42.5002 24.8665 42.5002 30.337V41.5H36.5002V31.2085C36.5002 28.8175 35.5897 26.9935 33.5002 26.9935C31.9072 26.9935 31.1092 28.2835 30.6907 29.347C30.5377 29.728 30.5002 30.259 30.5002 30.7915V41.5H24.5002V28.666Z" fill="#879AB4"/>
</svg>
