<svg width="328" height="32" viewBox="0 0 328 32" fill="none" xmlns="http://www.w3.org/2000/svg">
<path fill-rule="evenodd" clip-rule="evenodd" d="M35.2703 2.69182C35.801 4.06691 35.1463 5.62369 33.8079 6.16898L9.67885 16L33.8079 25.831C35.1463 26.3763 35.801 27.9331 35.2703 29.3082C34.7395 30.6833 33.2243 31.356 31.886 30.8107L1.64593 18.4898C0.652394 18.085 0 17.0981 0 16C0 14.9019 0.652394 13.915 1.64593 13.5102L31.886 1.18934C33.2243 0.644042 34.7395 1.31672 35.2703 2.69182Z" fill="#EB5757"/>
<path fill-rule="evenodd" clip-rule="evenodd" d="M34.5861 2.57537C35.671 3.52717 35.7509 5.14749 34.7646 6.19446C33.2923 7.75739 31.4462 10.7079 30.9144 14.2418C30.3998 17.6612 31.0909 21.7275 34.8036 25.8478C35.7657 26.9155 35.6487 28.5337 34.5423 29.4622C33.4359 30.3906 31.759 30.2777 30.797 29.21C26.0143 23.9022 24.9356 18.3183 25.6599 13.5053C26.367 8.80668 28.7685 4.94235 30.8359 2.74771C31.8222 1.70074 33.5012 1.62358 34.5861 2.57537Z" fill="#EB5757"/>
<path d="M51.4202 32H41.8465C40.4646 32 39.4745 31.6924 38.8762 31.0771C38.2921 30.4476 38 29.4532 38 28.0939V4.44266C38 3.05477 38.2992 2.06036 38.8975 1.45942C39.5101 0.844176 40.4931 0.536553 41.8465 0.536553H51.9972C53.493 0.536553 54.7895 0.629555 55.8865 0.81556C56.9834 1.00156 57.9664 1.35927 58.8355 1.88867C59.5763 2.33222 60.2316 2.89738 60.8015 3.58417C61.3714 4.25665 61.8059 5.00782 62.105 5.83769C62.4042 6.65325 62.5538 7.51889 62.5538 8.43461C62.5538 11.5824 60.9867 13.886 57.8525 15.3454C61.9697 16.6617 64.0283 19.2229 64.0283 23.0288C64.0283 24.7887 63.5796 26.3769 62.682 27.7934C61.7845 29.1956 60.5735 30.233 59.0492 30.9054C58.0947 31.3061 56.9977 31.5922 55.7582 31.7639C54.5188 31.9213 53.0728 32 51.4202 32ZM50.9501 18.0282H44.3468V27.2139H51.1637C55.4519 27.2139 57.596 25.6615 57.596 22.5567C57.596 20.9685 57.0404 19.8167 55.9292 19.1013C54.818 18.3859 53.1583 18.0282 50.9501 18.0282ZM44.3468 5.3226V13.4567H50.1594C51.7407 13.4567 52.9588 13.3065 53.8136 13.006C54.6826 12.7056 55.3451 12.1332 55.801 11.2891C56.1571 10.6881 56.3352 10.0156 56.3352 9.27163C56.3352 7.68343 55.7725 6.63179 54.647 6.1167C53.5215 5.5873 51.8048 5.3226 49.4969 5.3226H44.3468Z" fill="#EB5757"/>
<path d="M90.1849 5.45138H75.8885V13.1777H89.0523C90.021 13.1777 90.7405 13.3995 91.2106 13.8431C91.695 14.2723 91.9372 14.8446 91.9372 15.56C91.9372 16.2754 91.7021 16.8621 91.232 17.3199C90.7618 17.7635 90.0353 17.9852 89.0523 17.9852H75.8885V26.9349H90.6764C91.6736 26.9349 92.4216 27.171 92.9202 27.6432C93.4331 28.1011 93.6895 28.7163 93.6895 29.4889C93.6895 30.233 93.4331 30.841 92.9202 31.3132C92.4216 31.7711 91.6736 32 90.6764 32H73.431C72.0491 32 71.0518 31.6924 70.4392 31.0771C69.8409 30.4619 69.5417 29.4675 69.5417 28.0939V4.44266C69.5417 3.52694 69.677 2.78292 69.9477 2.2106C70.2184 1.62397 70.6387 1.20188 71.2085 0.944333C71.7927 0.672479 72.5335 0.536553 73.431 0.536553H90.1849C91.1964 0.536553 91.9443 0.765482 92.4287 1.22334C92.9273 1.66689 93.1766 2.25352 93.1766 2.98323C93.1766 3.72725 92.9273 4.32819 92.4287 4.78605C91.9443 5.2296 91.1964 5.45138 90.1849 5.45138Z" fill="#EB5757"/>
<path d="M104.951 3.86318V26.7632H117.816C118.842 26.7632 119.625 27.0136 120.167 27.5144C120.722 28.0152 121 28.6448 121 29.4031C121 30.1757 120.729 30.8053 120.188 31.2917C119.647 31.7639 118.856 32 117.816 32H102.494C101.112 32 100.115 31.6924 99.5021 31.0771C98.9037 30.4619 98.6045 29.4675 98.6045 28.0939V3.86318C98.6045 2.57545 98.8895 1.60966 99.4593 0.965795C100.043 0.321932 100.806 0 101.746 0C102.7 0 103.47 0.321932 104.054 0.965795C104.652 1.59535 104.951 2.56114 104.951 3.86318Z" fill="#EB5757"/>
<path d="M145.772 22.1847C145.772 24.0563 145.283 25.7379 144.305 27.2296C143.341 28.7212 141.923 29.8892 140.052 30.7335C138.181 31.5778 135.962 32 133.397 32C130.32 32 127.783 31.423 125.784 30.2691C124.367 29.4389 123.211 28.3342 122.318 26.9551C121.439 25.562 121 24.2111 121 22.9024C121 22.1425 121.262 21.4952 121.787 20.9604C122.325 20.4116 123.006 20.1372 123.828 20.1372C124.494 20.1372 125.054 20.3483 125.508 20.7704C125.976 21.1926 126.373 21.8188 126.699 22.6491C127.096 23.6341 127.521 24.4573 127.974 25.1187C128.442 25.7801 129.094 26.3289 129.931 26.7652C130.767 27.1873 131.866 27.3984 133.227 27.3984C135.098 27.3984 136.614 26.9692 137.777 26.1108C138.953 25.2383 139.542 24.1548 139.542 22.8602C139.542 21.8329 139.223 21.0026 138.585 20.3694C137.961 19.7221 137.146 19.2296 136.14 18.8918C135.147 18.5541 133.815 18.1952 132.142 17.8153C129.902 17.2946 128.024 16.6895 126.507 16C125.005 15.2964 123.807 14.3465 122.914 13.1504C122.035 11.9402 121.595 10.4415 121.595 8.65435C121.595 6.95163 122.063 5.43887 122.999 4.1161C123.934 2.79332 125.288 1.78012 127.06 1.07652C128.832 0.358839 130.916 0 133.312 0C135.225 0 136.877 0.239226 138.266 0.717678C139.669 1.18206 140.832 1.80827 141.753 2.59631C142.675 3.37027 143.348 4.18646 143.773 5.04485C144.198 5.90325 144.411 6.74054 144.411 7.55673C144.411 8.30255 144.142 8.97801 143.603 9.58311C143.079 10.1741 142.419 10.4697 141.626 10.4697C140.903 10.4697 140.35 10.2938 139.967 9.94195C139.598 9.57608 139.194 8.98505 138.755 8.16887C138.188 7.00088 137.508 6.09323 136.714 5.44591C135.92 4.78452 134.644 4.45383 132.886 4.45383C131.256 4.45383 129.938 4.81266 128.931 5.53034C127.939 6.23395 127.443 7.08531 127.443 8.08443C127.443 8.70361 127.613 9.23835 127.953 9.68865C128.293 10.139 128.761 10.5259 129.357 10.8496C129.952 11.1733 130.554 11.4266 131.164 11.6095C131.773 11.7924 132.78 12.0598 134.183 12.4116C135.941 12.8197 137.529 13.27 138.946 13.7625C140.378 14.2551 141.59 14.8531 142.582 15.5567C143.589 16.2603 144.369 17.1539 144.921 18.2375C145.488 19.3069 145.772 20.6227 145.772 22.1847Z" fill="#858585"/>
<path d="M151.386 28.1794V3.79947C151.386 2.53298 151.676 1.58311 152.257 0.949868C152.839 0.316623 153.59 0 154.511 0C155.461 0 156.227 0.316623 156.808 0.949868C157.403 1.56904 157.701 2.51891 157.701 3.79947V28.1794C157.701 29.46 157.403 30.4169 156.808 31.0501C156.227 31.6834 155.461 32 154.511 32C153.604 32 152.853 31.6834 152.257 31.0501C151.676 30.4028 151.386 29.4459 151.386 28.1794Z" fill="#858585"/>
<path d="M173.01 3.75726L185.152 21.9947V3.58839C185.152 2.39226 185.407 1.49868 185.917 0.907652C186.442 0.302551 187.144 0 188.022 0C188.93 0 189.646 0.302551 190.17 0.907652C190.695 1.49868 190.957 2.39226 190.957 3.58839V27.9261C190.957 30.642 189.823 32 187.555 32C186.988 32 186.477 31.9156 186.024 31.7467C185.57 31.5919 185.145 31.3386 184.748 30.9868C184.351 30.635 183.982 30.2269 183.642 29.7625C183.302 29.2841 182.962 28.7986 182.622 28.3061L170.778 10.2797V28.4116C170.778 29.5937 170.501 30.4872 169.949 31.0923C169.396 31.6974 168.687 32 167.822 32C166.929 32 166.213 31.6974 165.675 31.0923C165.136 30.4732 164.867 29.5796 164.867 28.4116V4.53826C164.867 3.52507 164.98 2.72999 165.207 2.15303C165.476 1.51979 165.923 1.00616 166.546 0.612137C167.17 0.204046 167.843 0 168.566 0C169.133 0 169.615 0.0914688 170.012 0.274406C170.423 0.457344 170.778 0.703606 171.076 1.01319C171.387 1.32278 171.699 1.72383 172.011 2.21636C172.337 2.70888 172.67 3.22252 173.01 3.75726Z" fill="#858585"/>
<path d="M221.555 22.1847C221.555 24.0563 221.066 25.7379 220.088 27.2296C219.124 28.7212 217.706 29.8892 215.835 30.7335C213.964 31.5778 211.745 32 209.18 32C206.104 32 203.566 31.423 201.567 30.2691C200.15 29.4389 198.994 28.3342 198.101 26.9551C197.222 25.562 196.783 24.2111 196.783 22.9024C196.783 22.1425 197.045 21.4952 197.57 20.9604C198.108 20.4116 198.789 20.1372 199.611 20.1372C200.277 20.1372 200.837 20.3483 201.291 20.7704C201.759 21.1926 202.156 21.8188 202.482 22.6491C202.879 23.6341 203.304 24.4573 203.757 25.1187C204.225 25.7801 204.877 26.3289 205.714 26.7652C206.55 27.1873 207.649 27.3984 209.01 27.3984C210.881 27.3984 212.398 26.9692 213.56 26.1108C214.737 25.2383 215.325 24.1548 215.325 22.8602C215.325 21.8329 215.006 21.0026 214.368 20.3694C213.744 19.7221 212.929 19.2296 211.923 18.8918C210.93 18.5541 209.598 18.1952 207.925 17.8153C205.685 17.2946 203.807 16.6895 202.29 16C200.788 15.2964 199.59 14.3465 198.697 13.1504C197.818 11.9402 197.378 10.4415 197.378 8.65435C197.378 6.95163 197.846 5.43887 198.782 4.1161C199.717 2.79332 201.071 1.78012 202.843 1.07652C204.615 0.358839 206.699 0 209.095 0C211.008 0 212.66 0.239226 214.049 0.717678C215.452 1.18206 216.615 1.80827 217.536 2.59631C218.458 3.37027 219.131 4.18646 219.556 5.04485C219.982 5.90325 220.194 6.74054 220.194 7.55673C220.194 8.30255 219.925 8.97801 219.386 9.58311C218.862 10.1741 218.202 10.4697 217.409 10.4697C216.686 10.4697 216.133 10.2938 215.75 9.94195C215.382 9.57608 214.978 8.98505 214.538 8.16887C213.971 7.00088 213.291 6.09323 212.497 5.44591C211.703 4.78452 210.427 4.45383 208.669 4.45383C207.039 4.45383 205.721 4.81266 204.714 5.53034C203.722 6.23395 203.226 7.08531 203.226 8.08443C203.226 8.70361 203.396 9.23835 203.736 9.68865C204.076 10.139 204.544 10.5259 205.14 10.8496C205.735 11.1733 206.337 11.4266 206.947 11.6095C207.557 11.7924 208.563 12.0598 209.966 12.4116C211.724 12.8197 213.312 13.27 214.729 13.7625C216.161 14.2551 217.373 14.8531 218.365 15.5567C219.372 16.2603 220.152 17.1539 220.704 18.2375C221.271 19.3069 221.555 20.6227 221.555 22.1847Z" fill="#858585"/>
<path d="M233.271 3.79947V12.6649H246.901V3.79947C246.901 2.53298 247.185 1.58311 247.752 0.949868C248.333 0.316623 249.091 0 250.027 0C250.977 0 251.742 0.316623 252.323 0.949868C252.919 1.56904 253.216 2.51891 253.216 3.79947V28.1794C253.216 29.46 252.919 30.4169 252.323 31.0501C251.728 31.6834 250.962 32 250.027 32C249.077 32 248.319 31.6834 247.752 31.0501C247.185 30.4028 246.901 29.4459 246.901 28.1794V17.7731H233.271V28.1794C233.271 29.46 232.973 30.4169 232.378 31.0501C231.783 31.6834 231.017 32 230.082 32C229.132 32 228.373 31.6834 227.806 31.0501C227.239 30.4028 226.956 29.4459 226.956 28.1794V3.79947C226.956 2.53298 227.232 1.58311 227.785 0.949868C228.352 0.316623 229.118 0 230.082 0C231.031 0 231.797 0.316623 232.378 0.949868C232.973 1.56904 233.271 2.51891 233.271 3.79947Z" fill="#858585"/>
<path d="M279.945 27.9683L278.456 24.0844H265.783L264.295 28.0528C263.713 29.6007 263.217 30.6491 262.806 31.1979C262.395 31.7326 261.722 32 260.786 32C259.992 32 259.291 31.7115 258.681 31.1346C258.071 30.5576 257.767 29.9033 257.767 29.1715C257.767 28.7493 257.838 28.3131 257.979 27.8628C258.121 27.4125 258.355 26.7863 258.681 25.9842L266.655 5.88918C266.882 5.31222 267.151 4.62269 267.463 3.82058C267.789 3.0044 268.129 2.32894 268.484 1.7942C268.852 1.25945 269.327 0.830255 269.908 0.506596C270.504 0.168865 271.234 0 272.098 0C272.977 0 273.707 0.168865 274.288 0.506596C274.884 0.830255 275.359 1.25242 275.713 1.77309C276.082 2.29376 276.386 2.85664 276.627 3.46174C276.883 4.05277 277.202 4.84785 277.584 5.84697L285.728 25.8153C286.366 27.3351 286.685 28.4398 286.685 29.1293C286.685 29.847 286.38 30.5084 285.771 31.1135C285.175 31.7045 284.452 32 283.602 32C283.106 32 282.68 31.9085 282.326 31.7256C281.972 31.5567 281.674 31.3245 281.433 31.029C281.192 30.7194 280.93 30.2551 280.646 29.6359C280.377 29.0026 280.143 28.4468 279.945 27.9683ZM267.442 19.3773H276.755L272.056 6.60686L267.442 19.3773Z" fill="#858585"/>
<path d="M313.413 26.5963L308.374 8.04222L303.271 26.5963C302.874 28.0035 302.555 29.0167 302.314 29.6359C302.087 30.241 301.683 30.7898 301.102 31.2823C300.52 31.7608 299.748 32 298.784 32C298.004 32 297.359 31.8522 296.849 31.5567C296.353 31.2753 295.949 30.8742 295.637 30.3536C295.325 29.8188 295.07 29.1926 294.871 28.4749C294.673 27.7432 294.496 27.0677 294.34 26.4485L289.152 5.61478C288.84 4.40457 288.684 3.48285 288.684 2.8496C288.684 2.04749 288.967 1.37203 289.534 0.823219C290.101 0.274406 290.803 0 291.639 0C292.788 0 293.56 0.365875 293.957 1.09763C294.354 1.82938 294.701 2.89182 294.999 4.28496L299.082 22.3536L303.653 5.44591C303.994 4.15128 304.298 3.16623 304.568 2.49077C304.837 1.8153 305.276 1.23131 305.886 0.738786C306.496 0.246262 307.325 0 308.374 0C309.437 0 310.259 0.260334 310.84 0.781003C311.436 1.2876 311.847 1.84345 312.074 2.44855C312.3 3.05365 312.605 4.05277 312.988 5.44591L317.602 22.3536L321.685 4.28496C321.883 3.34213 322.067 2.60334 322.238 2.0686C322.422 1.53386 322.727 1.05541 323.152 0.633245C323.591 0.211082 324.222 0 325.044 0C325.867 0 326.561 0.274406 327.128 0.823219C327.709 1.35796 328 2.03342 328 2.8496C328 3.42656 327.844 4.34828 327.532 5.61478L322.344 26.4485C321.99 27.8558 321.692 28.8901 321.451 29.5515C321.224 30.1988 320.827 30.7687 320.26 31.2612C319.707 31.7537 318.92 32 317.9 32C316.936 32 316.163 31.7608 315.582 31.2823C315.001 30.8039 314.597 30.2691 314.37 29.6781C314.143 29.073 313.824 28.0457 313.413 26.5963Z" fill="#858585"/>
</svg>
